{"title":"Stella UK S04E08 HDTV x264-LaS","uid":11800366,"size":366864153,"categoryP":"video","categoryS":"tv_shows","magnet":"?xt=urn:btih:7206280b11864627bfd5690b36bd7381033f49a3&amp;dn=Stella+UK+S04E08+HDTV+x264-LaS&amp;tr=udp%3A%2F%2Ftracker.openbittorrent.com%3A80&amp;tr=udp%3A%2F%2Fopen.demonii.com%3A1337&amp;tr=udp%3A%2F%2Ftracker.coppersurfer.tk%3A6969&amp;tr=udp%3A%2F%2Fexodus.desync.com%3A6969","seeders":2,"leechers":0,"uploader":"TvTeam","files":4,"time":1428355960,"description":" &lt;a href=&quot;https://www.torrenting.com&quot; rel=&quot;nofollow&quot; target=&quot;_NEW&quot;&gt;https://www.torrenting.com&lt;/a&gt;\n\nSign up is OPEN - for time being. Come and have fun.\n------------------------------------------------------------------------\n ^_^                           +      + +    \n                                +--++----+    \n                                +    \n                                +--+----    \n                           +      \n                           +------++-+  +-++------+    \n                                                                                                               \n*******************************************************************************\n                        Stella UK S04E08 HDTV x264-LaS\n*******************************************************************************\n\n-------------------------------------------------------------------------------\n                              General Information\n-------------------------------------------------------------------------------\nType.................: TV Show\nVideo Format.........: x264\nResolution...........: 720x404\nIMDb Link............: http://www.imdb.com/title/tt4537854/?ref_=ttep_ep8\n\nGeneral\nComplete name : Stella UK S04E08 HDTV x264-LaS.mp4\nFormat : MPEG-4\nFormat profile : Base Media / Version 2\nCodec ID : mp42\nFile size : 345 MiB\nDuration : 44mn 4s\nOverall bit rate mode : Variable\nOverall bit rate : 1 096 Kbps\n\n\nVideo\nID : 1\nFormat : AVC\nFormat/Info : Advanced Video Codec\nFormat profile : &lt;a class=&quot;__cf_email__&quot; href=&quot;/cdn-cgi/l/email-protection&quot; data-cfemail=&quot;2c614d45426c6018021c&quot;&gt;[email&amp;#160;protected]&lt;/a&gt;&lt;script cf-hash='f9e31' type=&quot;text/javascript&quot;&gt;\n/* &lt;![CDATA[ */!function(){try{var t=&quot;currentScript&quot;in document?document.currentScript:function(){for(var t=document.getElementsByTagName(&quot;script&quot;),e=t.length;e--;)if(t[e].getAttribute(&quot;cf-hash&quot;))return t[e]}();if(t&amp;&amp;t.previousSibling){var e,r,n,i,c=t.previousSibling,a=c.getAttribute(&quot;data-cfemail&quot;);if(a){for(e=&quot;&quot;,r=parseInt(a.substr(0,2),16),n=2;a.length-n;n+=2)i=parseInt(a.substr(n,2),16)^r,e+=String.fromCharCode(i);e=document.createTextNode(e),c.parentNode.replaceChild(e,c)}}}catch(u){}}();/* ]]&gt; */&lt;/script&gt;\nFormat settings, CABAC : Yes\nFormat settings, ReFrames : 4 frames\nCodec ID : avc1\nCodec ID/Info : Advanced Video Coding\nDuration : 44mn 4s\nBit rate : 931 Kbps\nWidth : 720 pixels\nHeight : 404 pixels\nDisplay aspect ratio : 16:9\nFrame rate mode : Constant\nFrame rate : 25.000 fps\nColor space : YUV\nChroma subsampling : 4:2:0\nBit depth : 8 bits\nScan type : Progressive\nBits/(Pixel*Frame) : 0.128\nStream size : 294 MiB (85%)\nWriting library : x264 core 130 r2273 b3065e6\n\n\nAudio\nID : 2\nFormat : AAC\nFormat/Info : Advanced Audio Codec\nFormat profile : LC\nCodec ID : 40\nDuration : 44mn 4s\nBit rate mode : Variable\nBit rate : 160 Kbps\nMaximum bit rate : 198 Kbps\nChannel(s) : 2 channels\nChannel positions : Front: L R\nSampling rate : 48.0 KHz\nCompression mode : Lossy\nStream size : 50.4 MiB (15%)\n-------------------------------------------------------------------------------\n                                 Release Notes\n-------------------------------------------------------------------------------\nStella UK S04E08 \nAirdate: March 27, 2015\nEnjoy!","torrent":{"xt":"urn:btih:7206280b11864627bfd5690b36bd7381033f49a3","amp;dn":"Stella+UK+S04E08+HDTV+x264-LaS","amp;tr":["udp%3A%2F%2Ftracker.openbittorrent.com%3A80","udp%3A%2F%2Fopen.demonii.com%3A1337","udp%3A%2F%2Ftracker.coppersurfer.tk%3A6969","udp%3A%2F%2Fexodus.desync.com%3A6969"],"infoHash":"7206280b11864627bfd5690b36bd7381033f49a3","infoHashBuffer":{"type":"Buffer","data":[114,6,40,11,17,134,70,39,191,213,105,11,54,189,115,129,3,63,73,163]},"announce":[],"urlList":[]}}